<svg xmlns="http://www.w3.org/2000/svg" viewBox="0 0 32 32" width="32" height="32">
  <!-- Background -->
  <rect width="32" height="32" rx="4" fill="#1e3a8a"/>
  
  <!-- Document shape -->
  <path d="M8 6 h12 l4 4 v16 a2 2 0 0 1 -2 2 h-14 a2 2 0 0 1 -2 -2 v-18 a2 2 0 0 1 2 -2 z" 
        fill="#fff" opacity="0.95"/>
  
  <!-- Folded corner -->
  <path d="M20 6 v4 h4 z" fill="#93c5fd"/>
  
  <!-- Canadian maple leaf (simplified) -->
  <path d="M16 12 l1 2 l2 -1 l-1 2 l2 1 l-2.5 0.5 l0.5 2.5 l-2 -1.5 l-2 1.5 l0.5 -2.5 l-2.5 -0.5 l2 -1 l-1 -2 l2 1 z" 
        fill="#dc2626" opacity="0.9"/>
  
  <!-- Document lines -->
  <line x1="10" y1="23" x2="22" y2="23" stroke="#1e40af" stroke-width="0.5" opacity="0.4"/>
  <line x1="10" y1="25" x2="20" y2="25" stroke="#1e40af" stroke-width="0.5" opacity="0.4"/>
</svg>